<?xml version="1.0" standalone="no"?>
<!DOCTYPE svg PUBLIC "-//W3C//DTD SVG 20010904//EN"
 "http://www.w3.org/TR/2001/REC-SVG-20010904/DTD/svg10.dtd">
<svg version="1.0" xmlns="http://www.w3.org/2000/svg"
 width="336px" height="90px" viewBox="0 0 336 90"
 preserveAspectRatio="xMidYMid meet">

<g transform="translate(-52.000000,216.000000) scale(0.100000,-0.100000)"
fill="#0a58ca" stroke="none">
<path d="M861 2151 c-6 -11 -11 -25 -11 -31 0 -6 -15 -48 -34 -93 -18 -45 -49
-122 -69 -172 -19 -49 -47 -121 -62 -160 -57 -144 -107 -272 -135 -347 l-29
-78 110 0 c79 0 111 4 114 13 2 6 27 75 55 152 47 132 80 220 145 393 15 40
30 71 33 68 5 -6 41 -98 147 -381 35 -93 71 -187 79 -207 l16 -38 110 0 c61 0
110 3 110 6 0 3 -15 42 -34 87 -40 95 -144 353 -191 477 -18 47 -55 139 -82
205 l-49 120 -106 3 c-98 2 -108 1 -117 -17z"/>
<path d="M1655 2152 c-37 -13 -69 -36 -125 -92 -63 -62 -82 -88 -108 -151 -76
-185 -41 -372 97 -517 40 -42 81 -72 123 -92 l63 -30 353 0 353 0 -6 23 c-4
12 -42 117 -85 232 -43 116 -87 235 -98 265 l-20 55 -186 3 -186 2 0 -120 0
-120 128 0 129 0 21 -71 20 -71 -176 4 c-173 3 -178 4 -224 31 -51 30 -98 89
-118 151 -34 106 22 236 126 291 57 30 59 30 237 33 132 2 178 6 174 15 -2 7
-17 49 -33 94 l-29 83 -190 -1 c-148 -1 -201 -5 -240 -17z"/>
<path d="M2186 2128 c8 -24 44 -122 80 -218 36 -96 81 -218 101 -270 19 -52
52 -140 73 -195 21 -55 43 -117 50 -137 l12 -38 282 0 c280 0 282 0 332 25 67
33 97 64 130 131 49 101 31 226 -45 301 -37 37 -94 65 -195 94 -39 11 -101 29
-137 40 -77 22 -104 46 -95 84 13 50 46 55 366 55 l290 0 0 -365 0 -365 100 0
100 0 0 365 0 365 125 0 125 0 0 85 0 85 -529 0 c-488 0 -534 -1 -589 -19 -80
-24 -126 -62 -158 -127 -22 -46 -26 -64 -22 -118 9 -147 113 -226 360 -276 81
-16 122 -46 126 -92 2 -29 -2 -41 -25 -62 -41 -38 -81 -46 -239 -46 l-142 0
-40 108 c-23 59 -66 175 -97 257 -31 83 -74 195 -96 249 -21 55 -39 106 -39
113 0 10 -26 13 -110 13 l-109 0 15 -42z"/>


<path d="M900 1541 c0 -5 7 -14 15 -21 13 -10 15 -9 15 9 0 12 -6 21 -15 21
-8 0 -15 -4 -15 -9z"/>
<path d="M958 1544 c-15 -14 -8 -42 15 -57 22 -15 22 -16 4 -48 -12 -21 -14
-36 -8 -42 14 -14 40 -1 51 25 l9 23 0 -23 c1 -17 6 -22 19 -20 10 2 17 12 16
25 0 12 6 25 14 28 10 4 13 0 9 -15 -6 -22 18 -29 26 -7 7 20 -4 37 -23 37
-11 0 -22 5 -25 11 -4 6 -19 7 -37 4 -20 -5 -28 -4 -24 3 4 6 -2 15 -11 21
-10 5 -15 13 -11 17 4 4 13 2 20 -4 18 -14 98 -41 98 -33 0 28 -123 75 -142
55z"/>
<path d="M857 1514 c-4 -4 -8 -21 -8 -38 -1 -17 -3 -23 -6 -13 -6 24 -23 11
-23 -19 0 -14 4 -23 9 -20 5 3 8 -9 7 -27 -1 -25 3 -33 19 -35 30 -3 46 11 55
54 12 50 4 56 -26 19 -13 -16 -24 -25 -24 -18 0 7 11 24 25 39 14 15 24 35 23
43 -3 17 -39 27 -51 15z"/>
<path d="M926 1484 c-9 -23 -7 -26 6 -18 8 5 9 2 5 -10 -26 -66 -12 -93 17
-34 21 40 20 51 -3 65 -16 10 -20 9 -25 -3z"/>
<path d="M908 1368 c-16 -12 -15 -16 0 -45 l17 -33 11 45 c11 48 3 57 -28 33z"/>
</g>
</svg>
